<svg  width="40" height="121" viewBox="0 0 40 121" fill="none" xmlns="http://www.w3.org/2000/svg">
<rect width="11" height="121" rx="4" fill="#464646"/>
<rect x="32" y="44.2276" width="8" height="76.7724" rx="4" fill="#464646"/>
<path d="M13 113.662V10.833C13 10.575 13.0996 10.3271 13.2781 10.1409L17.2781 5.96851C17.9017 5.31803 19 5.75943 19 6.66054V110.881C19 111.208 18.8397 111.515 18.5709 111.702L14.5709 114.483C13.9079 114.945 13 114.47 13 113.662Z" fill="#464646"/>
<path d="M23 113.622V48.7488C23 48.4138 23.1677 48.1011 23.4468 47.9158L27.4468 45.2592C28.1114 44.8177 29 45.2943 29 46.0922V111.851C29 112.247 28.7667 112.605 28.4049 112.766L24.4049 114.537C23.7437 114.829 23 114.345 23 113.622Z" fill="#464646"/>
</svg>
